<svg version="1.1" id="onge_logo" xmlns="http://www.w3.org/2000/svg" xmlns:xlink="http://www.w3.org/1999/xlink" x="0px" y="0px"
	 viewBox="0 0 289.6 118.4" enable-background="new 0 0 289.6 118.4" xml:space="preserve">
<path fill-rule="evenodd" clip-rule="evenodd" fill="#ea4830" d="M155.1,100.9V59.8c0-7.7-4.1-10.6-10.6-10.6
	c-6.2,0-9.4,3.2-11.7,5.8v45.9h-27.3V86.7c6.7-9.3,10.5-21,10.5-34.2c0-9.5-2-18.2-5.6-25.8h22.4v8.5c4.2-4.9,12.3-10.3,25.2-10.3
	c17,0,24.4,10.5,24.4,23.4v52.8H155.1z"/>
<path fill="#ea4830" d="M226.4,118.4c9.6,0,19.9-4.1,19.9-20.1V56.7h-10.8v5.5c-2.6-4.5-6.7-6.6-10.9-6.6c-9.7,0-16,8.3-16,22.4
	c0,14.4,6.4,22.3,16,22.3c4.2,0,8.3-2.4,10.9-6.7v5.4c0,7.7-4.8,10.4-9.7,10.4c-4.4,0-8.2-1.5-11.1-4.8l-4.3,8.4
	C214.9,116.9,220,118.4,226.4,118.4z M228.1,90.6c-5.5,0-8.3-5-8.3-12.6c0-7.6,2.9-12.7,8.3-12.7c3,0,6.1,2.3,7.4,5.2v15.1
	C234.2,88.3,231.1,90.6,228.1,90.6z"/>
<path fill="#ea4830" d="M271.8,101.7c5.8,0,11.7-2.3,15.5-6.5l-4.9-6.5c-2.4,2.7-6.4,4.3-9.4,4.3c-6.5,0-10-4.7-10.5-10.7h27.2v-3.1
	c0-13.6-6.7-23.5-18.7-23.5c-12,0-19.4,10.3-19.4,23C251.6,92.4,259.6,101.7,271.8,101.7z M279.2,74.7h-16.8
	c0.2-4.5,2.3-10.3,8.3-10.3C277.1,64.4,279.1,70.1,279.2,74.7z"/>
<path fill-rule="evenodd" clip-rule="evenodd" fill="#ea4830" d="M196.5,87.3c3.7,0,6.7,3.1,6.7,6.8s-3,6.8-6.7,6.8
	c-3.7,0-6.7-3.1-6.7-6.8S192.8,87.3,196.5,87.3z"/>
<path fill="#ea4830" d="M55.4,106.2c31.3,0,55.4-21.5,55.4-53.1S86.7,0,55.4,0S0,21.5,0,53.1S24.1,106.2,55.4,106.2z M55.4,78.8
	c-14.7,0-24.3-11.4-24.3-25.7s9.6-25.7,24.3-25.7c14.7,0,24.3,11.4,24.3,25.7S70.1,78.8,55.4,78.8z"/>
</svg>
