<svg xmlns="http://www.w3.org/2000/svg" viewBox="0 0 187.83 64">
  <defs>
    <style>
      .cls-1 {
        fill: #5386c5;
      }

      .cls-2 {
        fill: #f5bb41;
      }

      .cls-3 {
        fill: #50c1e9;
      }

      .cls-4 {
        fill: #3aafd9;
      }

      .cls-5 {
        fill: #41bc9d;
      }
    </style>
  </defs>
  <g id="Group_564" data-name="Group 564" transform="translate(0.036 -0.1)">
    <g id="Group_562" data-name="Group 562" transform="translate(-0.036 0.1)">
      <path id="Path_336" data-name="Path 336" class="cls-1" d="M48.9,16.476a10.148,10.148,0,0,1-6.244.589,10.636,10.636,0,0,1-8.129-8.129,10.148,10.148,0,0,1,.589-6.244.716.716,0,0,0-.471-1.06A26.211,26.211,0,0,0,25.571.1C10.491.1-.818,13.059.006,28.021c.118,1.414.236,2.827.471,4.241L2.009,30.73l3.652-3.652,6.715-6.715a2.062,2.062,0,0,1,2.945,0l8.247,8.247a2.062,2.062,0,0,0,2.945,0l3.416-3.416,6.715-6.715a2.062,2.062,0,0,1,2.945,0l1.3,1.3,5.419,5.419,5.066,5.066a30.027,30.027,0,0,0,.236-4.595,24.909,24.909,0,0,0-1.532-8.836A.955.955,0,0,0,48.9,16.476Z" transform="translate(0.036 -0.1)"/>
      <path id="Path_337" data-name="Path 337" class="cls-2" d="M45.284,5.455a7.153,7.153,0,0,1-.589,4.712,8.363,8.363,0,0,1-1.178,1.649,7.563,7.563,0,0,1-1.532,1.178,6.728,6.728,0,0,1-9.071-9.071,7.563,7.563,0,0,1,1.178-1.532,5.31,5.31,0,0,1,1.649-1.178A6.72,6.72,0,0,1,40.336.625,6.3,6.3,0,0,1,45.284,5.455Z" transform="translate(5.77 -0.035)"/>
      <g id="Group_560" data-name="Group 560" transform="translate(5.815 44.65)">
        <path id="Path_338" data-name="Path 338" class="cls-3" d="M36.411,47a63.029,63.029,0,0,1-9.425,7.775,5.691,5.691,0,0,1-6.362,0A63.029,63.029,0,0,1,11.2,47h0a11.129,11.129,0,0,1,4.83,1.532,14.907,14.907,0,0,0,7.775,1.885,16.157,16.157,0,0,0,7.775-1.885A11.655,11.655,0,0,1,36.411,47Z" transform="translate(-3.778 -36.397)"/>
        <path id="Path_339" data-name="Path 339" class="cls-4" d="M38.947,38.118h0a12.211,12.211,0,0,0-3.3.353H35.53a18.511,18.511,0,0,0-2.71,1.06,14.907,14.907,0,0,1-7.775,1.885,16.157,16.157,0,0,1-7.775-1.885A11.481,11.481,0,0,0,11.262,38,20.517,20.517,0,0,0,4.9,39.06a43.739,43.739,0,0,0,3.3,4.83,2.113,2.113,0,0,1,.589.825h0a12.115,12.115,0,0,1,2.121-.118,16.157,16.157,0,0,1,7.775,1.885,11.481,11.481,0,0,0,6.008,1.532A10.854,10.854,0,0,0,30.7,46.482,14.907,14.907,0,0,1,38.476,44.6a11.454,11.454,0,0,1,2.121.118h0a2.113,2.113,0,0,0,.589-.825c1.3-1.649,2.356-3.3,3.416-4.948A24.009,24.009,0,0,0,38.947,38.118Z" transform="translate(-4.9 -38)"/>
      </g>
      <g id="Group_561" data-name="Group 561" transform="translate(1.574 25.785)">
        <path id="Path_340" data-name="Path 340" class="cls-5" d="M32.048,38.369c-.118,0-.118.118-.236.118a11.627,11.627,0,0,1-6.126,1.532,11.627,11.627,0,0,1-6.126-1.532A14.907,14.907,0,0,0,11.785,36.6a23.93,23.93,0,0,0-8.247,1.532h0c-.707-1.649-1.414-3.3-2-4.948a2.773,2.773,0,0,1-.236-.942h0L7.544,26a2.139,2.139,0,0,1,2.71-.236l2,1.532a1.953,1.953,0,0,0,2.474,0l2-1.532a2,2,0,0,1,2.71.236Z" transform="translate(-1.3 -21.388)"/>
        <path id="Path_341" data-name="Path 341" class="cls-5" d="M46.1,30.956h0a36.12,36.12,0,0,1-2.71,7.54h0A24.89,24.89,0,0,0,35.5,37.082a14.869,14.869,0,0,0-3.534.353l-7.069-7.069a2.062,2.062,0,0,1,0-2.945l4.712-4.83a2.1,2.1,0,0,1,3.063.118l.471.471a2.062,2.062,0,0,0,2,.707l2.474-.471a2.173,2.173,0,0,1,1.885.589Z" transform="translate(2.792 -21.987)"/>
      </g>
    </g>
    <g id="Group_563" data-name="Group 563" transform="translate(63.624 10.703)">
      <path id="Path_342" data-name="Path 342" class="cls-5" d="M64.143,18.878a2.331,2.331,0,0,1-1.649-.589,2.894,2.894,0,0,1-.589-1.767h3.3a3.934,3.934,0,0,1,1.767.353,4.231,4.231,0,0,1,1.178.825,3.931,3.931,0,0,1,.589,1.414,7.245,7.245,0,0,1,.118,1.649v.942a4.884,4.884,0,0,1-.353,1.885A2.751,2.751,0,0,1,67.323,25a7.042,7.042,0,0,1-1.885.942,8.619,8.619,0,0,1-2.592.353,8.849,8.849,0,0,1-3.063-.589,7.488,7.488,0,0,1-2.592-1.649,9.251,9.251,0,0,1-1.885-2.71A9.178,9.178,0,0,1,54.6,17.7a9.178,9.178,0,0,1,.707-3.652,8.094,8.094,0,0,1,4.477-4.359A8.849,8.849,0,0,1,62.847,9.1a7.13,7.13,0,0,1,1.767.236,4.355,4.355,0,0,1,1.3.589,10.865,10.865,0,0,0,.942.589l.471.471c-.118.118-.118.236-.236.236l-.236.236c0,.118-.118.118-.236.118a1.532,1.532,0,0,1-1.178,0c-.236-.118-.353-.118-.589-.236a7.508,7.508,0,0,0-.825-.236,3.632,3.632,0,0,0-1.178-.118,5.859,5.859,0,0,0-1.885.353,3.907,3.907,0,0,0-1.649,1.178,6.424,6.424,0,0,0-1.178,2,10.271,10.271,0,0,0-.471,2.945,7.362,7.362,0,0,0,.471,2.945,4.763,4.763,0,0,0,1.178,2,5.31,5.31,0,0,0,1.649,1.178,4.884,4.884,0,0,0,1.885.353,4.616,4.616,0,0,0,1.532-.236,2.565,2.565,0,0,0,.942-.589,2.368,2.368,0,0,0,.471-.942,4.417,4.417,0,0,0,.118-1.3V19.7a.883.883,0,0,0-.118-.589c-.118-.118-.118-.236-.236-.353-.118,0-.236-.118-.353-.118h-1.06Z" transform="translate(-53.893 -9.1)"/>
      <path id="Path_343" data-name="Path 343" class="cls-5" d="M77.171,22.818c.236.118.353.353.589.589l.118.118-.118.118a4.186,4.186,0,0,1-1.885,1.3,5.274,5.274,0,0,1-2.356.471,4.621,4.621,0,0,1-2.121-.471,5.31,5.31,0,0,1-1.649-1.178,6.6,6.6,0,0,1-1.178-1.767,6.889,6.889,0,0,1-.471-2.238,6.859,6.859,0,0,1,.353-2.238,4.436,4.436,0,0,1,1.06-1.767,5.31,5.31,0,0,1,1.649-1.178A4.781,4.781,0,0,1,73.4,14.1a7.621,7.621,0,0,1,2.945.825A5.585,5.585,0,0,1,77.525,16.1,2.839,2.839,0,0,1,78,17.87a2,2,0,0,1-.471,1.532,4.613,4.613,0,0,1-1.178.942,6.642,6.642,0,0,1-1.414.471,5.283,5.283,0,0,1-1.3.118,6.224,6.224,0,0,1-1.532-.118,3.316,3.316,0,0,0-.942-.118,12.224,12.224,0,0,0,.353,1.414,4.987,4.987,0,0,0,.589.825,2.465,2.465,0,0,0,.707.471,1.281,1.281,0,0,0,.589.118,2.3,2.3,0,0,0,.942-.118,7.508,7.508,0,0,0,.825-.236c.236-.118.471-.118.707-.236a1.281,1.281,0,0,1,.589-.118A.751.751,0,0,1,77.171,22.818ZM73.4,15.985a5.1,5.1,0,0,1-.589.118l-.707.353a2.113,2.113,0,0,0-.589.825,2.375,2.375,0,0,0-.353,1.3,7.51,7.51,0,0,0,1.06.236,2.872,2.872,0,0,0,1.414,0,5.311,5.311,0,0,0,1.3-.353,1.3,1.3,0,0,0,.589-1.178,1.439,1.439,0,0,0-.471-1.06A6.14,6.14,0,0,0,73.4,15.985Z" transform="translate(-51.489 -8.21)"/>
      <path id="Path_344" data-name="Path 344" class="cls-5" d="M87.071,15.667a6.6,6.6,0,0,1,1.178,1.767,6.889,6.889,0,0,1,.471,2.238,6.859,6.859,0,0,1-.353,2.238,4.436,4.436,0,0,1-1.06,1.767,8.9,8.9,0,0,1-1.649,1.3,4.781,4.781,0,0,1-2.238.471,4.621,4.621,0,0,1-2.121-.471,5.73,5.73,0,0,1-1.649-1.3,6.6,6.6,0,0,1-1.178-1.767A6.889,6.889,0,0,1,78,19.673a6.859,6.859,0,0,1,.353-2.238,4.436,4.436,0,0,1,1.06-1.767,8.9,8.9,0,0,1,1.649-1.3A4.781,4.781,0,0,1,83.3,13.9a4.621,4.621,0,0,1,2.121.471A8.9,8.9,0,0,1,87.071,15.667ZM83.3,23.443a1.494,1.494,0,0,0,.707-.118,1.8,1.8,0,0,0,.825-.589,2.2,2.2,0,0,0,.589-1.178,7.658,7.658,0,0,0,0-3.77,3.685,3.685,0,0,0-.589-1.178,2.113,2.113,0,0,0-.825-.589,2.179,2.179,0,0,0-1.414,0,1.8,1.8,0,0,0-.825.589,2.2,2.2,0,0,0-.589,1.178,7.658,7.658,0,0,0,0,3.77,3.686,3.686,0,0,0,.589,1.178,2.113,2.113,0,0,0,.825.589C82.83,23.325,83.066,23.443,83.3,23.443Z" transform="translate(-49.726 -8.245)"/>
      <path id="Path_345" data-name="Path 345" class="cls-5" d="M88.518,19.384a5.67,5.67,0,0,1,.471-2.592,4.062,4.062,0,0,1,1.178-1.532,7.2,7.2,0,0,1,1.649-.825A9.156,9.156,0,0,1,93.7,14.2H94.88a1.3,1.3,0,0,1,0,.942,1.018,1.018,0,0,1-.353.707,1.16,1.16,0,0,1-.942.353,2.184,2.184,0,0,0-.825.236,2.464,2.464,0,0,0-.707.471,1.774,1.774,0,0,0-.471.942c0,.353-.118.825-.118,1.532v5.773a3.9,3.9,0,0,1-2.238-.589,2.459,2.459,0,0,1-.825-2V19.384Z" transform="translate(-47.874 -8.192)"/>
      <path id="Path_346" data-name="Path 346" class="cls-5" d="M97.21,25.01a13.9,13.9,0,0,1,2.356-.471,7.728,7.728,0,0,1,2.356.118,2.793,2.793,0,0,1,1.767,1.06,2.88,2.88,0,0,1,.707,2.121,3.369,3.369,0,0,1-1.649,2.945,3.629,3.629,0,0,1-1.414.589,5.913,5.913,0,0,1-1.414.236h-.236a5.55,5.55,0,0,1-2-.471,5.31,5.31,0,0,1-1.649-1.178,4.436,4.436,0,0,1-1.06-1.767,11.881,11.881,0,0,1-.471-2.356v-.471a5.464,5.464,0,0,1,.471-2.474,4.921,4.921,0,0,1,1.3-1.767,3.463,3.463,0,0,1-1.178-1.414,3.325,3.325,0,0,1-.471-1.767,3.763,3.763,0,0,1,.353-1.649,3.683,3.683,0,0,1,1.06-1.3,6.679,6.679,0,0,1,1.532-.942,4.884,4.884,0,0,1,1.885-.353,5.5,5.5,0,0,1,2,.353,4.157,4.157,0,0,1,1.532.942,3.476,3.476,0,0,1,1.3,2.945,4.158,4.158,0,0,1-.353,1.649,3.683,3.683,0,0,1-1.06,1.3,4.413,4.413,0,0,1-1.414.825,4.727,4.727,0,0,1-1.767.353h-.118a4.235,4.235,0,0,0-1.3.236,1.062,1.062,0,0,0-.707.707,2.249,2.249,0,0,0-.353.942Q97.21,24.656,97.21,25.01Zm4.359,3.888c.118-.118.236-.353.353-.471,0-.236.118-.353.118-.589v-.353a.9.9,0,0,0-.236-.589,1.626,1.626,0,0,0-.471-.353c-.236-.118-.471-.118-.707-.236-.236,0-.471-.118-.707-.118h-.707c-.236,0-.471.118-.707.118a5.1,5.1,0,0,0-.589.118c-.118,0-.236.118-.353.118,0,.236.118.353.118.589a1.674,1.674,0,0,0,.236.707l.353.707a1.176,1.176,0,0,0,.589.471,1.99,1.99,0,0,0,1.178.353,2.615,2.615,0,0,0,1.06-.118C101.215,29.251,101.333,29.133,101.569,28.9ZM99.448,15.821a.708.708,0,0,0-.471.118c-.236,0-.353.118-.589.353a1.082,1.082,0,0,0-.471.707,2.5,2.5,0,0,0,0,2.121,1.176,1.176,0,0,0,.471.589c.236.118.353.236.589.353.236,0,.353.118.471.118a1.281,1.281,0,0,0,.589-.118c.236,0,.353-.118.589-.353a1.176,1.176,0,0,0,.471-.589,2.5,2.5,0,0,0,0-2.121,2.465,2.465,0,0,0-.471-.707c-.236-.118-.353-.236-.589-.353A1.062,1.062,0,0,0,99.448,15.821Z" transform="translate(-46.787 -8.281)"/>
      <path id="Path_347" data-name="Path 347" class="cls-5" d="M106.845,11.538a1.538,1.538,0,0,1-1.414.825,1.494,1.494,0,0,1-.707-.118,1.42,1.42,0,0,1-.589-.589,1.675,1.675,0,0,1-.236-.707,1.7,1.7,0,0,1,.236-.825,1.42,1.42,0,0,1,.589-.589,1.7,1.7,0,0,1,.825-.236,1.674,1.674,0,0,1,.707.236,1.42,1.42,0,0,1,.589.589,1.675,1.675,0,0,1,.236.707A1.675,1.675,0,0,1,106.845,11.538Zm1.885,12.37c-.118.118-.236.236-.353.236a1.062,1.062,0,0,1-.589.118c-.236,0-.353-.118-.471-.353a1.373,1.373,0,0,1-.236-.825V15.073a3.9,3.9,0,0,0-2.238.589,2.59,2.59,0,0,0-.707,2v5.655a4.186,4.186,0,0,0,.236,1.178,2.471,2.471,0,0,0,1.532,1.532,2.34,2.34,0,0,0,1.3.118,2.093,2.093,0,0,0,1.178-.471,2.953,2.953,0,0,0,.471-.825A2.3,2.3,0,0,1,108.73,23.908Z" transform="translate(-45.113 -9.064)"/>
      <path id="Path_348" data-name="Path 348" class="cls-5" d="M110.332,19.084a7.207,7.207,0,0,1,1.414-.589,7.955,7.955,0,0,1,1.649-.236,7.6,7.6,0,0,1,2.356.353,2.375,2.375,0,0,0-.353-1.3,2.079,2.079,0,0,0-.942-1.06c-.118-.118-.353-.118-.471-.236-.236,0-.353-.118-.589-.118h-.236a1.494,1.494,0,0,0-.707.118,1.674,1.674,0,0,0-.707.236c-.236.118-.471.118-.707.236a5.1,5.1,0,0,0-.589.118.883.883,0,0,1-.589-.118.829.829,0,0,1-.471-.589v-.236a5.311,5.311,0,0,1,1.649-1.178,5.6,5.6,0,0,1,2.121-.589h.471a5.5,5.5,0,0,1,2,.353,3.587,3.587,0,0,1,1.532,1.06,5.254,5.254,0,0,1,1.414,3.888v.236a6.28,6.28,0,0,1-1.3,4.006,8.112,8.112,0,0,1-1.532,1.3,5,5,0,0,1-2,.589h-.589a3.262,3.262,0,0,1-1.06-.118,1.9,1.9,0,0,1-1.06-.353,4.775,4.775,0,0,1-1.06-.589,1.463,1.463,0,0,1-.707-.942,2.7,2.7,0,0,1-.471-1.649v-.118a2.947,2.947,0,0,1,.353-1.532C109.507,19.79,109.86,19.437,110.332,19.084Zm4.948,1.178c-.236,0-.471-.118-.707-.118h-1.414c-.236,0-.353.118-.589.118a2.565,2.565,0,0,0-.942.589c-.118.118-.118.236-.236.353,0,.118-.118.236-.118.353v.236a.708.708,0,0,0,.118.471.612.612,0,0,0,.236.471,2.575,2.575,0,0,0,.589.353,2.3,2.3,0,0,0,.942.118h.236a1.99,1.99,0,0,0,1.178-.353c.118-.118.353-.236.353-.353a.612.612,0,0,0,.236-.471c.118-.353.236-.589.353-.942a2.3,2.3,0,0,0,.118-.825H115.4C115.515,20.38,115.4,20.262,115.28,20.262Z" transform="translate(-44.24 -8.245)"/>
      <path id="Path_349" data-name="Path 349" class="cls-5" d="M118.736,19.184a5.67,5.67,0,0,1,.471-2.592,4.062,4.062,0,0,1,1.178-1.532,7.2,7.2,0,0,1,1.649-.825A9.156,9.156,0,0,1,123.919,14a11.747,11.747,0,0,1,1.885.236,3.141,3.141,0,0,1,1.649.825,3.827,3.827,0,0,1,1.178,1.532,5.67,5.67,0,0,1,.471,2.592l.118,6.008a3.9,3.9,0,0,1-2.238-.589,2.639,2.639,0,0,1-.825-2V19.184a6.141,6.141,0,0,0-.236-1.649,2.565,2.565,0,0,0-.589-.942,2.464,2.464,0,0,0-.707-.471,2.945,2.945,0,0,0-1.649,0,2.465,2.465,0,0,0-.707.471,2.368,2.368,0,0,0-.471.942,5.461,5.461,0,0,0-.236,1.649v6.008a3.9,3.9,0,0,1-2.238-.589,2.639,2.639,0,0,1-.825-2Z" transform="translate(-42.513 -8.227)"/>
      <path id="Path_350" data-name="Path 350" class="cls-5" d="M62.364,45.037v2.356a3.9,3.9,0,0,1-2.238-.589,2.639,2.639,0,0,1-.825-2V33.256H54a2.894,2.894,0,0,1,.589-1.767,1.914,1.914,0,0,1,1.649-.589H67.312a2.894,2.894,0,0,1-.589,1.767,1.914,1.914,0,0,1-1.649.589H62.247Z" transform="translate(-54 -5.218)"/>
      <path id="Path_351" data-name="Path 351" class="cls-5" d="M66.336,40.684a5.67,5.67,0,0,1,.471-2.592,4.061,4.061,0,0,1,1.178-1.532,7.2,7.2,0,0,1,1.649-.825,9.156,9.156,0,0,1,1.885-.236H72.7a1.3,1.3,0,0,1,0,.942,1.018,1.018,0,0,1-.353.707,1.16,1.16,0,0,1-.942.353,2.184,2.184,0,0,0-.825.236,2.464,2.464,0,0,0-.707.471,1.774,1.774,0,0,0-.471.942,5.461,5.461,0,0,0-.236,1.649v5.773a3.9,3.9,0,0,1-2.238-.589,2.459,2.459,0,0,1-.825-2v-3.3Z" transform="translate(-51.845 -4.398)"/>
      <path id="Path_352" data-name="Path 352" class="cls-5" d="M74.132,40.384a7.207,7.207,0,0,1,1.414-.589,7.955,7.955,0,0,1,1.649-.236,7.6,7.6,0,0,1,2.356.353,2.375,2.375,0,0,0-.353-1.3,2.079,2.079,0,0,0-.942-1.06c-.118-.118-.353-.118-.471-.236-.236,0-.353-.118-.589-.118h-.236a1.494,1.494,0,0,0-.707.118,1.674,1.674,0,0,0-.707.236c-.236.118-.471.118-.707.236a5.1,5.1,0,0,0-.589.118.883.883,0,0,1-.589-.118.829.829,0,0,1-.471-.589v-.236a5.31,5.31,0,0,1,1.649-1.178,5.6,5.6,0,0,1,2.121-.589h.471a5.5,5.5,0,0,1,2,.353,3.587,3.587,0,0,1,1.532,1.06A5.254,5.254,0,0,1,82.378,40.5v.353a6.28,6.28,0,0,1-1.3,4.006,8.112,8.112,0,0,1-1.532,1.3,5,5,0,0,1-2,.589h-.589a3.262,3.262,0,0,1-1.06-.118,1.9,1.9,0,0,1-1.06-.353,4.775,4.775,0,0,1-1.06-.589,1.463,1.463,0,0,1-.707-.942,2.7,2.7,0,0,1-.471-1.649v-.118a2.947,2.947,0,0,1,.353-1.532A10.623,10.623,0,0,1,74.132,40.384Zm4.948,1.178c-.236,0-.471-.118-.707-.118H76.959c-.236,0-.353.118-.589.118a2.565,2.565,0,0,0-.942.589c-.118.118-.118.236-.236.353,0,.118-.118.236-.118.353v.236a.708.708,0,0,0,.118.471.612.612,0,0,0,.236.471,2.575,2.575,0,0,0,.589.353,2.3,2.3,0,0,0,.942.118h.236a1.99,1.99,0,0,0,1.178-.353c.118-.118.353-.236.353-.353a.612.612,0,0,0,.236-.471c.118-.353.236-.589.353-.942a2.3,2.3,0,0,0,.118-.825H79.2C79.315,41.68,79.2,41.562,79.08,41.562Z" transform="translate(-50.687 -4.452)"/>
      <path id="Path_353" data-name="Path 353" class="cls-5" d="M88.975,45.532a2.312,2.312,0,0,1-1.06,1.06,1.9,1.9,0,0,1-1.06.353,2.124,2.124,0,0,1-1.178-.236,6.047,6.047,0,0,1-.471-1.178,13.713,13.713,0,0,1-.707-1.767c-.236-.589-.589-1.3-.825-2-.353-.707-.589-1.414-.825-2l-.707-1.767c-.236-.471-.353-.942-.471-1.178-.118-.118-.118-.236-.236-.471a.433.433,0,0,1-.118-.353c-.118-.118-.118-.236-.118-.471a5.736,5.736,0,0,1,1.414-.118,1.9,1.9,0,0,1,1.06.353,2.119,2.119,0,0,1,.942,1.06c.118.118.118.353.236.707s.236.589.353.942a4.184,4.184,0,0,0,.471,1.06,12.222,12.222,0,0,1,.471,1.178q.53,1.237,1.06,2.827.53-1.59,1.06-2.827a8.122,8.122,0,0,1,.471-1.178c.118-.353.353-.707.471-1.06a8.115,8.115,0,0,1,.353-.942,1.675,1.675,0,0,0,.236-.707,2.566,2.566,0,0,1,.825-1.06A3.457,3.457,0,0,1,91.8,35.4a5.736,5.736,0,0,1,1.414.118c-.118.118-.118.236-.236.353,0,.118-.118.236-.118.471a.708.708,0,0,0-.118.471,8.122,8.122,0,0,1-.471,1.178c-.236.471-.353,1.06-.589,1.532l-.707,1.767-.707,1.767a13.214,13.214,0,0,0-.589,1.532A2.141,2.141,0,0,0,88.975,45.532Z" transform="translate(-49.156 -4.416)"/>
      <path id="Path_354" data-name="Path 354" class="cls-5" d="M100.371,44.218c.236.118.353.353.589.589l.118.118-.118.118a4.186,4.186,0,0,1-1.885,1.3,5.274,5.274,0,0,1-2.356.471,4.621,4.621,0,0,1-2.121-.471,5.31,5.31,0,0,1-1.649-1.178,6.6,6.6,0,0,1-1.178-1.767,6.288,6.288,0,0,1-.118-4.477,4.436,4.436,0,0,1,1.06-1.767,5.31,5.31,0,0,1,1.649-1.178A4.781,4.781,0,0,1,96.6,35.5a7.621,7.621,0,0,1,2.945.825,5.585,5.585,0,0,1,1.178,1.178,2.839,2.839,0,0,1,.471,1.767,2,2,0,0,1-.471,1.532,4.613,4.613,0,0,1-1.178.942,6.642,6.642,0,0,1-1.414.471,5.283,5.283,0,0,1-1.3.118,6.224,6.224,0,0,1-1.532-.118c-.471-.236-.825-.236-.942-.353a12.222,12.222,0,0,0,.353,1.414,4.987,4.987,0,0,0,.589.825,2.464,2.464,0,0,0,.707.471,1.281,1.281,0,0,0,.589.118,2.3,2.3,0,0,0,.942-.118,7.507,7.507,0,0,0,.825-.236c.236-.118.471-.118.707-.236a1.281,1.281,0,0,1,.589-.118A1,1,0,0,1,100.371,44.218Zm-3.652-6.951a5.1,5.1,0,0,1-.589.118l-.707.353a2.113,2.113,0,0,0-.589.825,2.375,2.375,0,0,0-.353,1.3,7.51,7.51,0,0,0,1.06.236,2.872,2.872,0,0,0,1.414,0,5.311,5.311,0,0,0,1.3-.353,1.3,1.3,0,0,0,.589-1.178,1.439,1.439,0,0,0-.471-1.06A6.953,6.953,0,0,0,96.719,37.267Z" transform="translate(-47.357 -4.398)"/>
      <path id="Path_355" data-name="Path 355" class="cls-5" d="M106.13,45.173a3.632,3.632,0,0,1-.118,1.178,2.952,2.952,0,0,1-.471.825,2.215,2.215,0,0,1-1.178.471,4.417,4.417,0,0,1-1.3-.118A2.471,2.471,0,0,1,101.536,46a3.485,3.485,0,0,1-.236-1.178V30.8a3.9,3.9,0,0,1,2.238.589,2.639,2.639,0,0,1,.825,2V44.348a1.373,1.373,0,0,0,.236.825c.118.118.353.236.471.353s.353,0,.589-.118C106.012,45.408,106.13,45.291,106.13,45.173Z" transform="translate(-45.576 -5.235)"/>
      <path id="Path_356" data-name="Path 356" class="cls-5" d="M120.743,40.178a2.331,2.331,0,0,1-1.649-.589,2.651,2.651,0,0,1-.589-1.767h3.3a3.934,3.934,0,0,1,1.767.353,4.231,4.231,0,0,1,1.178.825,3.932,3.932,0,0,1,.589,1.414,7.245,7.245,0,0,1,.118,1.649v.942a4.884,4.884,0,0,1-.353,1.885,2.751,2.751,0,0,1-1.178,1.414,7.043,7.043,0,0,1-1.885.942,8.619,8.619,0,0,1-2.592.353,8.849,8.849,0,0,1-3.063-.589,7.487,7.487,0,0,1-2.592-1.649A8.488,8.488,0,0,1,111.2,39a8.782,8.782,0,0,1,.707-3.652,8.094,8.094,0,0,1,4.477-4.359,8.849,8.849,0,0,1,3.063-.589,7.13,7.13,0,0,1,1.767.236,4.355,4.355,0,0,1,1.3.589,10.864,10.864,0,0,0,.942.589l.471.471c-.118.118-.118.236-.236.236l-.236.236c0,.118-.118.118-.236.118a1.532,1.532,0,0,1-1.178,0c-.236-.118-.353-.118-.589-.236a7.51,7.51,0,0,0-.825-.236,3.632,3.632,0,0,0-1.178-.118,5.859,5.859,0,0,0-1.885.353,3.907,3.907,0,0,0-1.649,1.178,6.424,6.424,0,0,0-1.178,2,10.27,10.27,0,0,0-.471,2.945,7.362,7.362,0,0,0,.471,2.945,4.763,4.763,0,0,0,1.178,2,3.907,3.907,0,0,0,1.649,1.178,4.884,4.884,0,0,0,1.885.353,4.615,4.615,0,0,0,1.532-.236,2.565,2.565,0,0,0,.942-.589,2.368,2.368,0,0,0,.471-.942,4.418,4.418,0,0,0,.118-1.3V41a.883.883,0,0,0-.118-.589c-.118-.118-.118-.236-.236-.353-.118,0-.236-.118-.353-.118h-1.06Z" transform="translate(-43.813 -5.307)"/>
      <path id="Path_357" data-name="Path 357" class="cls-5" d="M135.267,41.508A5.67,5.67,0,0,1,134.8,44.1a4.062,4.062,0,0,1-1.178,1.532,7.2,7.2,0,0,1-1.649.825,9.157,9.157,0,0,1-1.885.236,11.747,11.747,0,0,1-1.885-.236,3.141,3.141,0,0,1-1.649-.825,3.827,3.827,0,0,1-1.178-1.532,5.67,5.67,0,0,1-.471-2.592V38.092a2.156,2.156,0,0,1,.825-2,3.9,3.9,0,0,1,2.238-.589v6.008a6.141,6.141,0,0,0,.236,1.649,7,7,0,0,0,.471.942,2.465,2.465,0,0,0,.707.471,1.747,1.747,0,0,0,.825.118,2,2,0,0,0,.825-.118,2.465,2.465,0,0,0,.707-.471,2.368,2.368,0,0,0,.471-.942,5.46,5.46,0,0,0,.236-1.649V38.092a2.156,2.156,0,0,1,.825-2A3.9,3.9,0,0,1,135.5,35.5v2.356Z" transform="translate(-41.373 -4.398)"/>
      <path id="Path_358" data-name="Path 358" class="cls-5" d="M138.345,32.838a1.538,1.538,0,0,1-1.414.825,1.494,1.494,0,0,1-.707-.118,1.42,1.42,0,0,1-.589-.589,1.674,1.674,0,0,1-.236-.707,1.7,1.7,0,0,1,.236-.825,1.42,1.42,0,0,1,.589-.589,1.7,1.7,0,0,1,.825-.236,1.675,1.675,0,0,1,.707.236,1.42,1.42,0,0,1,.589.589,1.674,1.674,0,0,1,.236.707C138.463,32.367,138.463,32.6,138.345,32.838Zm1.767,12.37c-.118.118-.236.236-.353.236a1.062,1.062,0,0,1-.589.118c-.236,0-.353-.118-.471-.353a1.373,1.373,0,0,1-.236-.825V36.373a3.9,3.9,0,0,0-2.238.589,2.59,2.59,0,0,0-.707,2v5.655a4.186,4.186,0,0,0,.236,1.178,2.471,2.471,0,0,0,1.532,1.532,2.34,2.34,0,0,0,1.3.118,2.093,2.093,0,0,0,1.178-.471,2.953,2.953,0,0,0,.471-.825C140.112,46.033,140.23,45.562,140.112,45.208Z" transform="translate(-39.503 -5.271)"/>
      <path id="Path_359" data-name="Path 359" class="cls-5" d="M151.021,41.856a6.859,6.859,0,0,1-.353,2.238,5.974,5.974,0,0,1-1.06,1.885,5.31,5.31,0,0,1-1.649,1.178,4.781,4.781,0,0,1-2.238.471,4.621,4.621,0,0,1-2.121-.471,8.362,8.362,0,0,1-1.649-1.178,6.6,6.6,0,0,1-1.178-1.767,6.288,6.288,0,0,1-.118-4.477,4.436,4.436,0,0,1,1.06-1.767,5.31,5.31,0,0,1,1.649-1.178,4.781,4.781,0,0,1,2.238-.471,5.878,5.878,0,0,1,2.474.589V33.492a2.156,2.156,0,0,1,.825-2,3.9,3.9,0,0,1,2.238-.589v2.356Zm-5.3,3.652a1.494,1.494,0,0,0,.707-.118,1.8,1.8,0,0,0,.825-.589,2.2,2.2,0,0,0,.589-1.178,7.381,7.381,0,0,0,.236-1.885,8.2,8.2,0,0,0-.236-1.885,3.685,3.685,0,0,0-.589-1.178,2.113,2.113,0,0,0-.825-.589,2.179,2.179,0,0,0-1.414,0,1.8,1.8,0,0,0-.825.589,2.2,2.2,0,0,0-.589,1.178,7.382,7.382,0,0,0-.236,1.885,8.2,8.2,0,0,0,.236,1.885,3.685,3.685,0,0,0,.589,1.178,2.113,2.113,0,0,0,.825.589C145.248,45.391,145.484,45.508,145.719,45.508Z" transform="translate(-38.63 -5.218)"/>
      <path id="Path_360" data-name="Path 360" class="cls-5" d="M160.071,44.218c.236.118.353.353.589.589l.118.118-.118.118a4.186,4.186,0,0,1-1.885,1.3,5.274,5.274,0,0,1-2.356.471,4.621,4.621,0,0,1-2.121-.471,5.311,5.311,0,0,1-1.649-1.178,6.6,6.6,0,0,1-1.178-1.767,6.288,6.288,0,0,1-.118-4.477,4.436,4.436,0,0,1,1.06-1.767,5.31,5.31,0,0,1,1.649-1.178A4.781,4.781,0,0,1,156.3,35.5a7.621,7.621,0,0,1,2.945.825,5.585,5.585,0,0,1,1.178,1.178,2.839,2.839,0,0,1,.471,1.767,2,2,0,0,1-.471,1.532,4.613,4.613,0,0,1-1.178.942,6.642,6.642,0,0,1-1.414.471,5.283,5.283,0,0,1-1.3.118,6.224,6.224,0,0,1-1.532-.118,3.316,3.316,0,0,0-.942-.118,12.226,12.226,0,0,0,.353,1.414,4.989,4.989,0,0,0,.589.825,2.465,2.465,0,0,0,.707.471,1.281,1.281,0,0,0,.589.118,2.3,2.3,0,0,0,.942-.118,7.507,7.507,0,0,0,.825-.236c.236-.118.471-.118.707-.236a1.281,1.281,0,0,1,.589-.118C159.718,43.982,159.836,44.1,160.071,44.218Zm-3.652-6.951a5.1,5.1,0,0,1-.589.118l-.707.353a2.113,2.113,0,0,0-.589.825,2.375,2.375,0,0,0-.353,1.3,7.509,7.509,0,0,0,1.06.236,2.872,2.872,0,0,0,1.414,0,5.312,5.312,0,0,0,1.3-.353,1.3,1.3,0,0,0,.589-1.178,1.439,1.439,0,0,0-.471-1.06A7.955,7.955,0,0,0,156.419,37.267Z" transform="translate(-36.725 -4.398)"/>
    </g>
  </g>
</svg>
